<svg width="38" height="51" viewBox="0 0 38 51" fill="none" xmlns="http://www.w3.org/2000/svg">
<g clip-path="url(#clip0)">
<path d="M11.969 7.29333C11.969 3.41003 15.1169 0.262085 19.0002 0.262085C22.8835 0.262085 26.0315 3.41003 26.0315 7.29333C26.0315 11.1765 22.8835 14.3246 19.0002 14.3246C15.1169 14.3246 11.969 11.1765 11.969 7.29333ZM36.8349 7.42742C35.6146 6.20701 33.6359 6.20701 32.4156 7.42742L23.9558 15.8871H14.0446L5.58489 7.42742C4.36458 6.20701 2.38586 6.20701 1.16555 7.42742C-0.0548585 8.64783 -0.0548585 10.6264 1.16555 11.8469L10.4065 21.0877V47.1371C10.4065 48.863 11.8056 50.2621 13.5315 50.2621H15.094C16.8199 50.2621 18.219 48.863 18.219 47.1371V36.1996H19.7815V47.1371C19.7815 48.863 21.1806 50.2621 22.9065 50.2621H24.469C26.1949 50.2621 27.594 48.863 27.594 47.1371V21.0877L36.8349 11.8468C38.0553 10.6263 38.0553 8.64783 36.8349 7.42742Z" fill="#2B44FF"/>
</g>
<defs>
<clipPath id="clip0">
<rect width="37.5" height="50" fill="white" transform="translate(0.25 0.262085)"/>
</clipPath>
</defs>
</svg>
