<svg width="39" height="51" viewBox="0 0 39 51" fill="none" xmlns="http://www.w3.org/2000/svg">
<g clip-path="url(#clip0)">
<path d="M33.5625 6.51208H25.75C25.75 3.06482 22.9473 0.262085 19.5 0.262085C16.0527 0.262085 13.25 3.06482 13.25 6.51208H5.4375C2.84961 6.51208 0.75 8.61169 0.75 11.1996V45.5746C0.75 48.1625 2.84961 50.2621 5.4375 50.2621H33.5625C36.1504 50.2621 38.25 48.1625 38.25 45.5746V11.1996C38.25 8.61169 36.1504 6.51208 33.5625 6.51208ZM10.125 41.6683C8.82617 41.6683 7.78125 40.6234 7.78125 39.3246C7.78125 38.0258 8.82617 36.9808 10.125 36.9808C11.4238 36.9808 12.4688 38.0258 12.4688 39.3246C12.4688 40.6234 11.4238 41.6683 10.125 41.6683ZM10.125 32.2933C8.82617 32.2933 7.78125 31.2484 7.78125 29.9496C7.78125 28.6508 8.82617 27.6058 10.125 27.6058C11.4238 27.6058 12.4688 28.6508 12.4688 29.9496C12.4688 31.2484 11.4238 32.2933 10.125 32.2933ZM10.125 22.9183C8.82617 22.9183 7.78125 21.8734 7.78125 20.5746C7.78125 19.2758 8.82617 18.2308 10.125 18.2308C11.4238 18.2308 12.4688 19.2758 12.4688 20.5746C12.4688 21.8734 11.4238 22.9183 10.125 22.9183ZM19.5 4.16833C20.7988 4.16833 21.8438 5.21326 21.8438 6.51208C21.8438 7.81091 20.7988 8.85583 19.5 8.85583C18.2012 8.85583 17.1562 7.81091 17.1562 6.51208C17.1562 5.21326 18.2012 4.16833 19.5 4.16833ZM32 40.1058C32 40.5355 31.6484 40.8871 31.2188 40.8871H17.1562C16.7266 40.8871 16.375 40.5355 16.375 40.1058V38.5433C16.375 38.1136 16.7266 37.7621 17.1562 37.7621H31.2188C31.6484 37.7621 32 38.1136 32 38.5433V40.1058ZM32 30.7308C32 31.1605 31.6484 31.5121 31.2188 31.5121H17.1562C16.7266 31.5121 16.375 31.1605 16.375 30.7308V29.1683C16.375 28.7386 16.7266 28.3871 17.1562 28.3871H31.2188C31.6484 28.3871 32 28.7386 32 29.1683V30.7308ZM32 21.3558C32 21.7855 31.6484 22.1371 31.2188 22.1371H17.1562C16.7266 22.1371 16.375 21.7855 16.375 21.3558V19.7933C16.375 19.3636 16.7266 19.0121 17.1562 19.0121H31.2188C31.6484 19.0121 32 19.3636 32 19.7933V21.3558Z" fill="#FF9B21"/>
</g>
<defs>
<clipPath id="clip0">
<rect width="37.5" height="50" fill="white" transform="translate(0.75 0.262085)"/>
</clipPath>
</defs>
</svg>
