<svg width="51" height="51" viewBox="0 0 51 51" fill="none" xmlns="http://www.w3.org/2000/svg">
<g clip-path="url(#clip0)">
<path d="M25.5 3.38708C11.6914 3.38708 0.5 12.4789 0.5 23.6996C0.5 28.5433 2.58984 32.9769 6.06641 36.4633C4.8457 41.3851 0.763672 45.7699 0.714844 45.8187C0.5 46.0433 0.441406 46.3754 0.568359 46.6683C0.695312 46.9613 0.96875 47.1371 1.28125 47.1371C7.75586 47.1371 12.6094 44.0316 15.0117 42.1176C18.2051 43.3187 21.75 44.0121 25.5 44.0121C39.3086 44.0121 50.5 34.9203 50.5 23.6996C50.5 12.4789 39.3086 3.38708 25.5 3.38708ZM13 26.8246C11.2715 26.8246 9.875 25.4281 9.875 23.6996C9.875 21.9711 11.2715 20.5746 13 20.5746C14.7285 20.5746 16.125 21.9711 16.125 23.6996C16.125 25.4281 14.7285 26.8246 13 26.8246ZM25.5 26.8246C23.7715 26.8246 22.375 25.4281 22.375 23.6996C22.375 21.9711 23.7715 20.5746 25.5 20.5746C27.2285 20.5746 28.625 21.9711 28.625 23.6996C28.625 25.4281 27.2285 26.8246 25.5 26.8246ZM38 26.8246C36.2715 26.8246 34.875 25.4281 34.875 23.6996C34.875 21.9711 36.2715 20.5746 38 20.5746C39.7285 20.5746 41.125 21.9711 41.125 23.6996C41.125 25.4281 39.7285 26.8246 38 26.8246Z" fill="#2B1764"/>
</g>
<defs>
<clipPath id="clip0">
<rect width="50" height="50" fill="white" transform="translate(0.5 0.262085)"/>
</clipPath>
</defs>
</svg>
