<svg width="32" height="32" viewBox="0 0 32 32" fill="none" xmlns="http://www.w3.org/2000/svg">
<g clip-path="url(#clip0)">
<path d="M10.566 24.8375C10.566 24.9625 10.4223 25.0625 10.241 25.0625C10.0348 25.0812 9.89105 24.9812 9.89105 24.8375C9.89105 24.7125 10.0348 24.6125 10.216 24.6125C10.4035 24.5938 10.566 24.6938 10.566 24.8375ZM8.6223 24.5562C8.57855 24.6812 8.70355 24.825 8.89105 24.8625C9.05355 24.925 9.24105 24.8625 9.27855 24.7375C9.31605 24.6125 9.1973 24.4688 9.0098 24.4125C8.8473 24.3687 8.66605 24.4312 8.6223 24.5562ZM11.3848 24.45C11.2035 24.4938 11.0785 24.6125 11.0973 24.7563C11.116 24.8813 11.2785 24.9625 11.466 24.9188C11.6473 24.875 11.7723 24.7563 11.7535 24.6313C11.7348 24.5125 11.566 24.4313 11.3848 24.45ZM15.4973 0.5C6.82855 0.5 0.197296 7.08125 0.197296 15.75C0.197296 22.6812 4.5598 28.6125 10.791 30.7C11.591 30.8438 11.8723 30.35 11.8723 29.9438C11.8723 29.5562 11.8535 27.4188 11.8535 26.1063C11.8535 26.1063 7.47855 27.0437 6.5598 24.2437C6.5598 24.2437 5.8473 22.425 4.8223 21.9562C4.8223 21.9562 3.39105 20.975 4.9223 20.9937C4.9223 20.9937 6.47855 21.1188 7.3348 22.6063C8.70355 25.0188 10.9973 24.325 11.891 23.9125C12.0348 22.9125 12.441 22.2188 12.891 21.8062C9.3973 21.4187 5.8723 20.9125 5.8723 14.9C5.8723 13.1812 6.3473 12.3188 7.3473 11.2188C7.1848 10.8125 6.65355 9.1375 7.5098 6.975C8.81605 6.56875 11.8223 8.6625 11.8223 8.6625C13.0723 8.3125 14.416 8.13125 15.7473 8.13125C17.0785 8.13125 18.4223 8.3125 19.6723 8.6625C19.6723 8.6625 22.6785 6.5625 23.9848 6.975C24.841 9.14375 24.3098 10.8125 24.1473 11.2188C25.1473 12.325 25.7598 13.1875 25.7598 14.9C25.7598 20.9312 22.0785 21.4125 18.5848 21.8062C19.1598 22.3 19.6473 23.2375 19.6473 24.7062C19.6473 26.8125 19.6285 29.4187 19.6285 29.9312C19.6285 30.3375 19.916 30.8312 20.7098 30.6875C26.9598 28.6125 31.1973 22.6812 31.1973 15.75C31.1973 7.08125 24.166 0.5 15.4973 0.5ZM6.2723 22.0562C6.19105 22.1187 6.2098 22.2625 6.31605 22.3813C6.41605 22.4813 6.5598 22.525 6.64105 22.4438C6.7223 22.3813 6.70355 22.2375 6.5973 22.1187C6.4973 22.0187 6.35355 21.975 6.2723 22.0562ZM5.5973 21.55C5.55355 21.6312 5.61605 21.7313 5.74105 21.7938C5.84105 21.8563 5.96605 21.8375 6.0098 21.75C6.05355 21.6688 5.99105 21.5688 5.86605 21.5063C5.74105 21.4688 5.64105 21.4875 5.5973 21.55ZM7.6223 23.775C7.5223 23.8562 7.5598 24.0438 7.70355 24.1625C7.8473 24.3062 8.02855 24.325 8.1098 24.225C8.19105 24.1438 8.15355 23.9562 8.02855 23.8375C7.89105 23.6938 7.70355 23.675 7.6223 23.775ZM6.9098 22.8563C6.8098 22.9188 6.8098 23.0813 6.9098 23.225C7.0098 23.3687 7.17855 23.4312 7.2598 23.3687C7.3598 23.2875 7.3598 23.125 7.2598 22.9813C7.1723 22.8375 7.0098 22.775 6.9098 22.8563Z" fill="#FF9B21"/>
</g>
<defs>
<clipPath id="clip0">
<rect width="31" height="32" fill="white" transform="translate(0.197296)"/>
</clipPath>
</defs>
</svg>
