<svg width="464" height="476" viewBox="0 0 464 476" fill="none" xmlns="http://www.w3.org/2000/svg">
<path fill-rule="evenodd" clip-rule="evenodd" d="M350.612 122.629C354.257 122.208 358.148 122.356 361.538 123.717C368.746 126.61 370.795 134.662 370.696 141.207C370.59 148.251 369.008 155.945 374.672 161.621C377.276 164.23 380.514 166.227 383.071 168.885C385.803 171.724 387.946 174.973 389.534 178.463C392.448 184.871 393.878 192.408 391.213 199.131C388.867 205.05 382.964 210.392 384.239 217.123C385.57 224.144 393.056 229.512 397.737 234.741C403.034 240.66 407.912 248.224 408.713 255.985C409.481 263.423 406.057 270.946 400.802 276.569C390.302 287.803 374.519 293.311 358.605 293.277C351.849 293.262 344.199 292.974 338.368 289.541C336.566 288.48 335.615 287.289 334.544 285.634C333.583 284.15 332.314 283.185 330.846 282.135C327.619 279.828 325.289 276.72 323.802 273.24C318.027 259.724 322.643 243.004 330.726 231.002C332.641 228.159 334.209 225.422 333.279 222.033C332.308 218.495 329.921 215.304 327.81 212.263C325.725 209.257 323.343 206.39 321.713 203.14C320.006 199.736 319.525 196.171 319.826 192.445C320.393 185.446 323.589 178.988 328.113 173.359C332.47 167.938 337.586 162.751 337.597 155.647C337.61 148.118 332.287 141.42 334.554 133.766C335.494 130.596 337.38 127.344 340.419 125.444C343.334 123.621 347.183 123.025 350.612 122.629Z" fill="#DDE3E9"/>
<path fill-rule="evenodd" clip-rule="evenodd" d="M348.23 134.665C348.298 133.654 349.567 133.047 350.565 133.311C351.88 133.659 351.854 134.82 351.82 135.855C351.713 139.035 352.2 142.126 353.009 145.211C354.689 151.627 357.795 157.538 360.255 163.7C362.714 169.858 363.868 176.215 362.425 182.731C361.066 188.874 358.93 194.858 357.539 201.009C356.312 206.43 355.007 212.148 356.875 217.555C358.672 222.76 362.645 226.999 365.506 231.703C371.429 241.44 374.056 252.243 374.407 263.36C374.57 268.522 374.424 273.731 373.157 278.794C372.428 281.71 371.448 285.649 368.806 287.662C367.588 288.59 365.504 288.911 364.479 287.537C363.516 286.247 364.361 284.252 364.666 282.878C365.99 276.93 366.256 270.851 365.939 264.811C365.633 258.961 364.902 253.121 362.954 247.533C361.147 242.348 358.401 237.691 355.17 233.156C351.877 228.533 348.453 223.901 347.093 218.424C345.71 212.862 346.833 207.202 348.335 201.745C349.923 195.974 352.003 190.368 354.154 184.753C356.25 179.282 356.993 174.105 355.836 168.379C353.55 157.065 347.433 146.447 348.23 134.665Z" fill="#C5CFD6"/>
<path fill-rule="evenodd" clip-rule="evenodd" d="M446.86 136.357C451.371 137.652 455.851 139.741 459.067 143.018C465.904 149.985 463.806 160.515 460.032 168.207C455.969 176.485 449.812 184.806 453.283 194.305C454.878 198.671 457.56 202.626 459.074 207.026C460.69 211.728 461.388 216.625 461.299 221.532C461.135 230.544 458.599 240.161 451.716 246.801C445.655 252.647 435.744 256.061 433.478 264.648C431.113 273.606 436.894 283.637 439.46 292.124C442.365 301.729 443.857 313.073 440.458 322.646C437.201 331.821 428.98 339.033 419.673 343.097C401.077 351.219 379.487 349.97 360.84 342.102C352.923 338.761 344.112 334.657 339.192 327.728C337.672 325.587 337.222 323.712 336.891 321.227C336.594 319 335.645 317.234 334.51 315.27C332.015 310.955 331.019 306.133 331.22 301.286C332.002 282.462 346.763 264.958 362.953 254.74C366.789 252.32 370.158 249.855 370.961 245.389C371.8 240.727 370.785 235.78 370.009 231.145C369.243 226.564 368.053 222.002 367.957 217.357C367.858 212.491 369.287 208.038 371.723 203.78C376.301 195.783 383.659 189.716 392.111 185.285C400.253 181.017 409.153 177.398 413.138 169.003C417.361 160.105 414.862 149.566 421.801 141.629C424.674 138.342 428.704 135.424 433.332 134.672C437.769 133.951 442.617 135.139 446.86 136.357Z" fill="#DDE3E9"/>
<path fill-rule="evenodd" clip-rule="evenodd" d="M437.645 151.07C438.285 149.907 440.104 149.817 441.126 150.624C442.471 151.687 441.798 153.05 441.184 154.258C439.298 157.972 438.156 161.873 437.392 165.928C435.803 174.358 436.16 182.897 435.624 191.415C435.088 199.925 432.916 208.025 427.621 215.027C422.628 221.628 416.816 227.656 411.782 234.251C407.345 240.063 402.653 246.187 401.841 253.516C401.059 260.571 403.357 267.559 404.097 274.548C405.629 289.014 402.718 303.109 396.971 316.448C394.302 322.642 391.245 328.739 386.96 334.107C384.492 337.198 381.165 341.378 376.96 342.452C375.021 342.947 372.407 342.295 371.969 340.159C371.558 338.155 373.651 336.21 374.769 334.734C379.612 328.346 383.29 321.28 386.265 313.97C389.147 306.89 391.527 299.612 392.345 292.03C393.103 284.994 392.472 278.118 391.206 271.145C389.916 264.04 388.479 256.858 389.921 249.697C391.386 242.425 395.834 236.279 400.613 230.561C405.666 224.514 411.204 218.906 416.829 213.323C422.31 207.882 426.046 202.119 427.865 194.765C431.459 180.234 430.187 164.627 437.645 151.07Z" fill="#C5CFD6"/>
<path fill-rule="evenodd" clip-rule="evenodd" d="M307.406 189.801C314.907 189.801 321.501 193.56 326.045 198.894C331.364 205.139 332.439 212.766 334.599 220.208C335.673 223.912 337.522 227.589 340.761 230.106C343.708 232.394 347.448 232.852 350.975 233.97C358.023 236.205 363.715 241.588 365.962 248.156C368.704 256.168 365.8 264.248 366.3 272.367C366.759 279.824 374.535 284.476 380.791 288.051C386.96 291.575 392.517 294.875 394.375 301.742C396.346 309.024 397.007 317.153 394.278 324.348C389.734 336.327 376.437 341.602 363.589 342.42C351.929 343.162 337.268 341.996 328.511 333.994C323.271 329.205 321.373 322.507 321.609 315.844C321.755 311.7 322.623 307.595 323.746 303.591C324.541 300.752 325.616 297.927 325.922 294.994C326.736 287.192 319.109 285.693 312.617 283.551C304.368 280.828 298.592 275.686 294.576 268.522C290.836 261.851 289.267 254.363 291.509 247.019C292.654 243.269 294.731 239.866 297.548 236.972C298.788 235.699 300.535 234.636 301.654 233.298C302.699 232.048 302.471 230.429 302.111 228.965C300.447 222.204 295.261 216.605 293.406 209.856C291.732 203.765 292.722 196.183 298.612 192.253C301.157 190.555 304.295 189.819 307.406 189.801Z" fill="#C5CFD6"/>
<path fill-rule="evenodd" clip-rule="evenodd" d="M317.627 207.417C325.577 215.424 327.738 226.288 328.372 236.818C328.727 242.722 328.357 248.95 330.192 254.677C331.762 259.579 335.442 263.326 339.235 266.867C346.871 273.996 355.387 281.244 357.621 291.561C358.931 297.616 358.047 303.87 359.857 309.858C361.504 315.301 364.403 320.648 367.929 325.245C370.768 328.946 374.467 331.78 377.571 335.23C378.517 336.283 379.874 337.834 379.483 339.321C379.026 341.062 376.68 341.613 375.016 341.339C371.135 340.702 367.869 337.198 365.332 334.651C361.621 330.927 358.469 326.921 355.906 322.428C353.062 317.437 350.771 312.142 349.792 306.544C348.777 300.735 349.282 294.682 346.963 289.108C343.061 279.729 333.595 274.194 326.752 266.884C318.225 257.775 319.497 246.438 320.37 235.233C320.85 229.075 321.327 222.121 318.036 216.499C316.78 214.353 313.979 212.352 313.439 209.913C312.944 207.678 315.644 205.419 317.627 207.417Z" fill="#AFB9C5"/>
<path fill-rule="evenodd" clip-rule="evenodd" d="M326.105 338.999C326.105 384.792 334.009 408.786 375.734 408.786C417.46 408.786 425.363 384.792 425.364 338.999H326.105Z" fill="url(#paint0_linear)"/>
<path fill-rule="evenodd" clip-rule="evenodd" d="M172.346 63.9655C165.351 55.7554 160.617 45.6938 161.408 34.4196C163.688 1.93526 208.907 9.08139 217.703 25.4767C226.499 41.872 225.454 83.46 214.086 86.3903C209.552 87.5589 199.894 84.6963 190.065 78.7716L196.235 122.421H159.804L172.346 63.9655Z" fill="#B28B67"/>
<path fill-rule="evenodd" clip-rule="evenodd" d="M169.547 71.2779C164.974 50.9361 151.948 37.0698 153.938 27.9779C155.264 21.9166 158.799 18.1473 164.542 16.67C167.513 4.65312 177.093 -0.458115 193.283 1.33627C217.568 4.02784 232.391 14.1132 225.99 36.3055C220.106 36.3055 213.002 34.1775 203.18 37.8234C200.063 38.9802 197.834 42.5676 196.493 48.5856H192.054C187.746 41.4439 183.498 38.8195 179.311 40.7125C175.123 42.6054 174.172 47.2034 176.455 54.5064L174.269 71.2779H169.547Z" fill="#191847"/>
<path fill-rule="evenodd" clip-rule="evenodd" d="M120.055 219.881H270.73L290.474 461.727H66.1805L120.055 219.881Z" fill="#C5CFD6"/>
<path fill-rule="evenodd" clip-rule="evenodd" d="M120.055 219.881H166.396L194.132 461.727H66.1805L120.055 219.881Z" fill="black" fill-opacity="0.1"/>
<path d="M93.1876 475.133C144.355 475.133 185.835 435.539 185.835 386.697C185.835 337.855 144.355 298.26 93.1876 298.26C42.0197 298.26 0.539917 337.855 0.539917 386.697C0.539917 435.539 42.0197 475.133 93.1876 475.133Z" fill="#C5CFD6"/>
<path fill-rule="evenodd" clip-rule="evenodd" d="M346.434 415.596C331.018 381.475 319.869 351.764 315.393 336.088C307.731 309.247 301.902 285.629 300.428 276.809C296.915 255.776 327.455 254.551 331.492 265.004C337.601 280.825 348.268 332.806 361.084 411.322L346.434 415.596ZM167.611 308.514C181.756 302.923 231.29 285.426 255.18 280.477C262.045 279.054 268.699 277.733 274.955 276.538C293.549 272.989 303.183 306.534 285.274 309.111C240.674 315.53 177.447 322.158 172.036 322.902C164.452 323.945 158.722 312.028 167.611 308.514Z" fill="#B28B67"/>
<path fill-rule="evenodd" clip-rule="evenodd" d="M286.367 267.307L209.858 228.36V219.881H218.957C292.976 238.742 330.8 250.83 332.428 256.143C332.446 256.201 332.462 256.258 332.476 256.315C332.514 256.364 332.55 256.413 332.586 256.463C347.255 276.637 356.04 375.128 358.924 382.503L330.815 386.697C320.062 346.824 285.661 319.048 286.575 271.293C286.328 269.893 286.265 268.564 286.367 267.307Z" fill="#1F28CF"/>
<path fill-rule="evenodd" clip-rule="evenodd" d="M216.215 290.438C209.215 289.037 202.768 287.786 197.252 286.819C161.62 280.569 151.23 261.496 157.373 219.881L223.023 219.881C233.747 222.962 289.48 246.334 318.396 258.765C337.535 266.992 331.501 296.652 320.663 304.37C320.605 304.844 320.41 305.165 320.062 305.309C261.761 329.473 215.64 316.795 200.232 320.846L193.106 298.365L216.215 290.438Z" fill="#2B44FF"/>
<path fill-rule="evenodd" clip-rule="evenodd" d="M170.237 304.36C166.826 304.366 164.436 304.681 163.066 305.306C161.401 306.065 159.146 307.51 156.301 309.64C157.522 311.982 168.497 333.025 189.224 372.77C194.555 372.369 196.477 370.32 194.99 366.623C193.504 362.925 192.295 359.842 191.363 357.373L186.855 323.108C186.768 322.448 186.213 321.882 185.616 321.843C185.606 321.842 185.596 321.842 185.586 321.841L180.827 321.677C177.861 318.98 175.844 316.608 174.777 314.563C173.911 312.901 173.268 310.353 172.848 306.919L172.848 306.919C172.687 305.601 171.587 304.458 170.391 304.366C170.339 304.362 170.288 304.36 170.237 304.36Z" fill="#E4E4E4"/>
<path fill-rule="evenodd" clip-rule="evenodd" d="M339.418 409.27C338.072 412.863 337.399 415.552 337.399 417.336C337.399 419.505 337.761 422.672 338.483 426.834C341 426.834 363.622 426.834 406.347 426.834C408.111 421.004 407.093 417.857 403.293 417.392C399.493 416.927 396.337 416.507 393.824 416.132L362.282 402.071C361.675 401.8 360.963 402.073 360.693 402.68C360.688 402.69 360.684 402.701 360.679 402.711L358.652 407.629C355.134 409.271 352.276 410.091 350.077 410.091C348.29 410.091 345.823 409.369 342.675 407.926L342.675 407.926C341.466 407.372 340.038 407.903 339.484 409.111C339.46 409.163 339.438 409.216 339.418 409.27Z" fill="#E4E4E4"/>
<path fill-rule="evenodd" clip-rule="evenodd" d="M252.996 196.514L291.377 224.697C301.786 227.506 310.483 231.001 317.467 235.182C319.117 236.685 321.111 239.729 314.269 239.203C307.427 238.677 300.207 238.431 299.263 240.765C298.319 243.099 302.459 245.89 300.551 249.038C299.278 251.138 293.268 245.874 282.519 233.247L244.512 217.487L252.996 196.514ZM105.635 197.486L130.779 197.585C115.253 247.704 106.872 274.296 105.635 277.363C102.85 284.263 108.742 294.771 111.262 300.418C103.056 304.09 103.93 290.491 93.5783 295.307C84.1298 299.703 76.9424 307.668 66.026 300.932C64.6839 300.104 63.2132 296.986 66.7666 294.55C75.6196 288.479 88.3772 277.855 90.101 274.358C92.4517 269.589 97.6295 243.965 105.635 197.486Z" fill="#B28B67"/>
<path fill-rule="evenodd" clip-rule="evenodd" d="M177.09 91.979L187.494 90.1944C226.098 123.542 241.953 187.607 289.271 221.545L277.882 235.662C195.794 225.498 175.448 147.354 177.09 91.979Z" fill="#E87613"/>
<path fill-rule="evenodd" clip-rule="evenodd" d="M131.735 222.73C173.452 222.73 204.139 222.73 223.795 222.73C228.001 222.73 227.209 216.656 226.601 213.591C219.582 178.216 192.186 140.083 192.186 89.7274L165.632 85.5634C143.668 120.888 136.072 164.38 131.735 222.73Z" fill="#DDE3E9"/>
<path fill-rule="evenodd" clip-rule="evenodd" d="M132.475 120.286C128.618 119.177 125.564 116.592 123.312 112.529C113.607 95.0159 117.112 85.3738 127.484 82.2043C137.856 79.0349 147.106 85.5634 163.632 85.5634C164.531 85.5634 165.354 85.6197 166.102 85.7324L174.415 86.2068C198.265 167.039 204.843 220.97 194.148 247.998H121.69C117.397 258.008 113.289 266.431 109.366 273.265H89.6222C87.7641 213.185 102.048 162.192 132.475 120.286Z" fill="#FF9B21"/>
<path fill-rule="evenodd" clip-rule="evenodd" d="M137.468 206.484C139.747 225.55 143.451 239.388 148.58 247.998H121.69C126.698 236.321 131.957 222.483 137.468 206.484Z" fill="black" fill-opacity="0.1"/>
<defs>
<linearGradient id="paint0_linear" x1="425.364" y1="346.019" x2="352.65" y2="390.459" gradientUnits="userSpaceOnUse">
<stop stop-color="#351776"/>
<stop offset="1" stop-color="#191847"/>
</linearGradient>
</defs>
</svg>
