<svg width="33" height="33" viewBox="0 0 33 33" fill="none" xmlns="http://www.w3.org/2000/svg">
<g clip-path="url(#clip0)">
<path d="M29.5246 10.2635C29.5449 10.5478 29.5449 10.8321 29.5449 11.1163C29.5449 19.7863 22.946 29.7762 10.885 29.7762C7.16928 29.7762 3.71753 28.7 0.813965 26.8321C1.3419 26.8929 1.84946 26.9132 2.39771 26.9132C5.46365 26.9132 8.28603 25.8778 10.5398 24.1112C7.65659 24.0503 5.24034 22.162 4.40784 19.563C4.81396 19.6239 5.22003 19.6645 5.64646 19.6645C6.23528 19.6645 6.82415 19.5833 7.37234 19.4412C4.36728 18.832 2.1134 16.1924 2.1134 13.0046V12.9234C2.98646 13.4108 4.00178 13.7153 5.07784 13.7559C3.31134 12.5782 2.15403 10.5681 2.15403 8.29394C2.15403 7.07569 2.47884 5.95894 3.0474 4.98431C6.27584 8.964 11.1287 11.5629 16.5702 11.8473C16.4687 11.3599 16.4078 10.8524 16.4078 10.3448C16.4078 6.7305 19.3317 3.78638 22.9662 3.78638C24.8545 3.78638 26.56 4.57825 27.758 5.85744C29.2402 5.57319 30.6615 5.02494 31.9205 4.27369C31.4331 5.79656 30.3976 7.07575 29.0372 7.88788C30.357 7.74581 31.6362 7.38025 32.8138 6.87269C31.9206 8.17213 30.8038 9.32944 29.5246 10.2635Z" fill="#E87613"/>
</g>
<defs>
<clipPath id="clip0">
<rect width="32" height="32" fill="white" transform="translate(0.813965 0.78125)"/>
</clipPath>
</defs>
</svg>
